<svg width="14" height="14" viewBox="0 0 14 14" fill="none" xmlns="http://www.w3.org/2000/svg">
<path d="M10.2151 2.8491C10.0609 2.8491 9.91007 2.89484 9.78181 2.98055C9.65354 3.06626 9.55353 3.18808 9.49451 3.3306C9.43549 3.47313 9.42006 3.62996 9.45013 3.78127C9.48021 3.93257 9.55448 4.07156 9.66359 4.18064C9.77271 4.28972 9.91163 4.36401 10.063 4.39411C10.2143 4.4242 10.3711 4.40876 10.5136 4.34972C10.6562 4.29068 10.778 4.19071 10.8637 4.06244C10.9494 3.93417 10.9951 3.78336 10.9951 3.6291C10.9951 3.42222 10.913 3.22384 10.7667 3.07755C10.6204 2.93127 10.422 2.8491 10.2151 2.8491ZM13.2051 4.4221C13.1925 3.88279 13.0915 3.34921 12.9061 2.8426C12.7409 2.40913 12.4836 2.01663 12.1521 1.6921C11.8303 1.35892 11.4369 1.10331 11.0016 0.944598C10.4964 0.753603 9.96216 0.650284 9.42214 0.639098C8.73314 0.600098 8.51214 0.600098 6.74414 0.600098C4.97614 0.600098 4.75514 0.600098 4.06614 0.639098C3.52609 0.650284 2.99192 0.753603 2.48664 0.944598C2.05223 1.10492 1.65915 1.36031 1.33614 1.6921C1.00297 2.01396 0.747353 2.40738 0.588641 2.8426C0.397645 3.34787 0.294327 3.88204 0.283141 4.4221C0.244141 5.1111 0.244141 5.3321 0.244141 7.1001C0.244141 8.8681 0.244141 9.0891 0.283141 9.7781C0.294327 10.3181 0.397645 10.8523 0.588641 11.3576C0.747353 11.7928 1.00297 12.1862 1.33614 12.5081C1.65915 12.8399 2.05223 13.0953 2.48664 13.2556C2.99192 13.4466 3.52609 13.5499 4.06614 13.5611C4.75514 13.6001 4.97614 13.6001 6.74414 13.6001C8.51214 13.6001 8.73314 13.6001 9.42214 13.5611C9.96216 13.5499 10.4964 13.4466 11.0016 13.2556C11.4369 13.0969 11.8303 12.8412 12.1521 12.5081C12.4851 12.1847 12.7426 11.7919 12.9061 11.3576C13.0915 10.8509 13.1925 10.3174 13.2051 9.7781C13.2051 9.0891 13.2441 8.8681 13.2441 7.1001C13.2441 5.3321 13.2441 5.1111 13.2051 4.4221ZM12.0351 9.7001C12.0304 10.1127 11.9557 10.5215 11.8141 10.9091C11.7103 11.192 11.5437 11.4476 11.3266 11.6566C11.1158 11.8714 10.8607 12.0378 10.5791 12.1441C10.1916 12.2856 9.78276 12.3603 9.37014 12.3651C8.72014 12.3976 8.47964 12.4041 6.77014 12.4041C5.06064 12.4041 4.82014 12.4041 4.17014 12.3651C3.74172 12.3732 3.31513 12.3071 2.90914 12.1701C2.6399 12.0584 2.39652 11.8924 2.19414 11.6826C1.9784 11.4738 1.81379 11.218 1.71314 10.9351C1.55445 10.542 1.46643 10.1239 1.45314 9.7001C1.45314 9.0501 1.41414 8.8096 1.41414 7.1001C1.41414 5.3906 1.41414 5.1501 1.45314 4.5001C1.45605 4.07828 1.53306 3.66026 1.68064 3.2651C1.79508 2.99074 1.97071 2.74617 2.19414 2.5501C2.39162 2.32661 2.63568 2.14911 2.90914 2.0301C3.30535 1.88712 3.72294 1.8124 4.14414 1.8091C4.79414 1.8091 5.03464 1.7701 6.74414 1.7701C8.45364 1.7701 8.69414 1.7701 9.34414 1.8091C9.75676 1.81383 10.1656 1.88855 10.5531 2.0301C10.8485 2.13972 11.1136 2.31795 11.3266 2.5501C11.5397 2.74976 11.7061 2.99387 11.8141 3.2651C11.9586 3.6609 12.0334 4.07875 12.0351 4.5001C12.0676 5.1501 12.0741 5.3906 12.0741 7.1001C12.0741 8.8096 12.0676 9.0501 12.0351 9.7001ZM6.74414 3.7656C6.08492 3.76688 5.44086 3.96354 4.89337 4.33072C4.34587 4.6979 3.91948 5.21913 3.66811 5.82853C3.41672 6.43795 3.35161 7.1082 3.48101 7.7546C3.6104 8.401 3.9285 8.99454 4.39509 9.4602C4.86169 9.92595 5.45585 10.2429 6.1025 10.371C6.74915 10.4992 7.41927 10.4327 8.02819 10.1801C8.63711 9.9276 9.15755 9.50016 9.52363 8.95199C9.88971 8.40375 10.0851 7.75932 10.0851 7.1001C10.086 6.66142 10.0001 6.2269 9.83242 5.82152C9.66481 5.41615 9.41859 5.04793 9.10815 4.73803C8.79762 4.42814 8.42891 4.18269 8.02321 4.0158C7.61751 3.84892 7.18282 3.76388 6.74414 3.7656ZM6.74414 9.2646C6.31604 9.2646 5.89756 9.13763 5.54161 8.89982C5.18566 8.66198 4.90823 8.32393 4.7444 7.92841C4.58058 7.5329 4.53771 7.0977 4.62123 6.67782C4.70475 6.25795 4.9109 5.87227 5.21361 5.56956C5.51632 5.26686 5.90199 5.06071 6.32187 4.97719C6.74174 4.89367 7.17695 4.93653 7.57246 5.10036C7.96797 5.26419 8.30602 5.54161 8.54386 5.89756C8.78167 6.25352 8.90864 6.672 8.90864 7.1001C8.90864 7.38435 8.85265 7.66581 8.74389 7.92841C8.63512 8.19102 8.47566 8.42964 8.27467 8.63063C8.07369 8.83162 7.83507 8.99108 7.57246 9.09984C7.30985 9.20861 7.02839 9.2646 6.74414 9.2646Z" fill="black"/>
</svg>
