<svg width="10" height="14" viewBox="0 0 10 14" fill="none" xmlns="http://www.w3.org/2000/svg">
<path d="M5.35456 5.63745H8.55456L8.199 7.05967H5.35456V13.4597H3.93233V7.05967H1.08789V5.63745H3.93233V4.30625C3.93233 3.03833 4.0646 2.57825 4.31207 2.1146C4.55456 1.65651 4.92917 1.2819 5.38727 1.0394C5.85091 0.791935 6.311 0.659668 7.57891 0.659668C7.95011 0.659668 8.2758 0.695224 8.55456 0.766335V2.08189H7.57891C6.6374 2.08189 6.35082 2.13736 6.05856 2.2938C5.84238 2.409 5.68167 2.56971 5.56647 2.78589C5.41002 3.07816 5.35456 3.36473 5.35456 4.30625V5.63745Z" fill="black" stroke="black" stroke-width="0.8"/>
</svg>
