<svg width="14" height="10" viewBox="0 0 14 10" fill="none" xmlns="http://www.w3.org/2000/svg">
<path d="M12.9236 2.51558C12.9236 2.51558 12.8055 1.67907 12.4419 1.31177C11.9815 0.828348 11.4667 0.825978 11.2306 0.797541C9.54011 0.674316 7.00188 0.674316 7.00188 0.674316H6.99716C6.99716 0.674316 4.45896 0.674316 2.76841 0.797541C2.5323 0.825978 2.01758 0.828348 1.55716 1.31177C1.19355 1.67907 1.07786 2.51558 1.07786 2.51558C1.07786 2.51558 0.955078 3.49901 0.955078 4.48008V5.39952C0.955078 6.38059 1.07549 7.36402 1.07549 7.36402C1.07549 7.36402 1.19355 8.2005 1.5548 8.56779C2.01522 9.05128 2.61966 9.03464 2.88883 9.08676C3.85688 9.17921 6.99952 9.20765 6.99952 9.20765C6.99952 9.20765 9.54011 9.20289 11.2306 9.08207C11.4667 9.05362 11.9815 9.05128 12.4419 8.56779C12.8055 8.2005 12.9236 7.36402 12.9236 7.36402C12.9236 7.36402 13.044 6.38295 13.044 5.39952V4.48008C13.044 3.49901 12.9236 2.51558 12.9236 2.51558ZM5.7505 6.51565V3.10564L9.01588 4.81657L5.7505 6.51565Z" fill="black"/>
</svg>
