<svg width="22" height="22" viewBox="0 0 22 22" fill="none" xmlns="http://www.w3.org/2000/svg">
<path fill-rule="evenodd" clip-rule="evenodd" d="M17.966 5.92808L16.4077 3.85C15.8879 3.15792 15.073 2.75 14.2077 2.75H7.79102C6.92568 2.75 6.11077 3.15792 5.59102 3.85L4.03268 5.92808C3.79435 6.24525 3.66602 6.63117 3.66602 7.02808V16.5C3.66602 18.0189 4.8971 19.25 6.41602 19.25H15.5827C17.1016 19.25 18.3327 18.0189 18.3327 16.5V7.02808C18.3327 6.63117 18.2043 6.24525 17.966 5.92808Z" stroke="black" stroke-linecap="round" stroke-linejoin="round"/>
<path d="M13.75 9.16667C13.75 10.6856 12.5189 11.9167 11 11.9167C9.48108 11.9167 8.25 10.6856 8.25 9.16667" stroke="black" stroke-linecap="round" stroke-linejoin="round"/>
<path d="M18.2221 6.41667H3.77539" stroke="black" stroke-linecap="round" stroke-linejoin="round"/>
</svg>
