<svg width="51" height="50" viewBox="0 0 51 50" fill="none" xmlns="http://www.w3.org/2000/svg">
<path d="M42.583 43.7503H9.08301C7.97844 43.7503 7.08301 42.8549 7.08301 41.7503V18.667C7.08301 17.5624 7.97844 16.667 9.08301 16.667H42.583C43.6876 16.667 44.583 17.5624 44.583 18.667V41.7503C44.583 42.8549 43.6876 43.7503 42.583 43.7503Z" stroke="black"/>
<path d="M15.416 16.6661V8.93276C15.416 8.60139 15.6846 8.33276 16.016 8.33276H35.6493C35.9807 8.33276 36.2493 8.60139 36.2493 8.93276V16.6661" stroke="black"/>
<path d="M21.666 8.33276V16.6661" stroke="black"/>
<path d="M25.833 8.33276V16.6661" stroke="black"/>
<path d="M35.2083 31.2503C34.633 31.2503 34.1667 30.784 34.1667 30.2087C34.1667 29.6334 34.633 29.167 35.2083 29.167C35.7836 29.167 36.25 29.6334 36.25 30.2087C36.25 30.784 35.7836 31.2503 35.2083 31.2503Z" fill="black" stroke="black" stroke-linecap="round" stroke-linejoin="round"/>
</svg>
