<svg width="51" height="50" viewBox="0 0 51 50" fill="none" xmlns="http://www.w3.org/2000/svg">
<path d="M6.75 14.5829L25.5 22.9162M44.25 14.5829L25.5 22.9162M25.5 45.8329V22.9162" stroke="black" stroke-linejoin="round"/>
<path d="M6.75 37.1101V14.9733C6.75 14.7361 6.88964 14.5213 7.10632 14.425L25.2563 6.3583C25.4115 6.28935 25.5885 6.28935 25.7437 6.3583L43.8937 14.425C44.1104 14.5213 44.25 14.7361 44.25 14.9733V37.1101C44.25 37.3472 44.1104 37.5621 43.8937 37.6584L25.7437 45.725C25.5885 45.794 25.4115 45.794 25.2563 45.725L7.10632 37.6584C6.88964 37.5621 6.75 37.3472 6.75 37.1101Z" stroke="black" stroke-linecap="round" stroke-linejoin="round"/>
<path d="M16.125 10.4171L34.5187 18.5921C34.7354 18.6884 34.875 18.9033 34.875 19.1404V27.0838" stroke="black" stroke-linecap="round" stroke-linejoin="round"/>
</svg>
