<svg width="16" height="16" viewBox="0 0 16 16" fill="none" xmlns="http://www.w3.org/2000/svg">
<path d="M12.4827 2.99539C12.3047 2.99539 12.1307 3.04817 11.9827 3.14707C11.8347 3.24596 11.7193 3.38652 11.6512 3.55097C11.5831 3.71543 11.5653 3.89639 11.6 4.07097C11.6347 4.24555 11.7204 4.40592 11.8463 4.53179C11.9722 4.65765 12.1325 4.74337 12.3071 4.7781C12.4817 4.81282 12.6627 4.795 12.8271 4.72688C12.9916 4.65876 13.1321 4.54341 13.231 4.3954C13.3299 4.2474 13.3827 4.07339 13.3827 3.89539C13.3827 3.65669 13.2879 3.42778 13.1191 3.25899C12.9503 3.09021 12.7214 2.99539 12.4827 2.99539ZM15.9327 4.81039C15.9181 4.18811 15.8016 3.57244 15.5877 2.98789C15.397 2.48774 15.1002 2.03485 14.7177 1.66039C14.3463 1.27596 13.8924 0.981021 13.3902 0.797891C12.8072 0.577512 12.1908 0.458298 11.5677 0.445391C10.7727 0.400391 10.5177 0.400391 8.47766 0.400391C6.43766 0.400391 6.18266 0.400391 5.38766 0.445391C4.76452 0.458298 4.14817 0.577512 3.56516 0.797891C3.06392 0.982881 2.61036 1.27756 2.23766 1.66039C1.85323 2.03177 1.55829 2.48572 1.37516 2.98789C1.15478 3.5709 1.03557 4.18725 1.02266 4.81039C0.977661 5.60539 0.977661 5.86039 0.977661 7.90039C0.977661 9.94039 0.977661 10.1954 1.02266 10.9904C1.03557 11.6135 1.15478 12.2299 1.37516 12.8129C1.55829 13.3151 1.85323 13.769 2.23766 14.1404C2.61036 14.5232 3.06392 14.8179 3.56516 15.0029C4.14817 15.2233 4.76452 15.3425 5.38766 15.3554C6.18266 15.4004 6.43766 15.4004 8.47766 15.4004C10.5177 15.4004 10.7727 15.4004 11.5677 15.3554C12.1908 15.3425 12.8072 15.2233 13.3902 15.0029C13.8924 14.8198 14.3463 14.5248 14.7177 14.1404C15.1019 13.7673 15.399 13.314 15.5877 12.8129C15.8016 12.2283 15.9181 11.6127 15.9327 10.9904C15.9327 10.1954 15.9777 9.94039 15.9777 7.90039C15.9777 5.86039 15.9777 5.60539 15.9327 4.81039ZM14.5827 10.9004C14.5772 11.3765 14.491 11.8482 14.3277 12.2954C14.2079 12.6218 14.0156 12.9167 13.7652 13.1579C13.5219 13.4058 13.2276 13.5977 12.9027 13.7204C12.4555 13.8837 11.9838 13.9699 11.5077 13.9754C10.7577 14.0129 10.4802 14.0204 8.50766 14.0204C6.53516 14.0204 6.25766 14.0204 5.50766 13.9754C5.01333 13.9847 4.52111 13.9085 4.05266 13.7504C3.742 13.6215 3.46118 13.43 3.22766 13.1879C2.97873 12.947 2.78879 12.6518 2.67266 12.3254C2.48955 11.8718 2.38799 11.3894 2.37266 10.9004C2.37266 10.1504 2.32766 9.87289 2.32766 7.90039C2.32766 5.92789 2.32766 5.65039 2.37266 4.90039C2.37602 4.41368 2.46487 3.93135 2.63516 3.47539C2.7672 3.15882 2.96986 2.87663 3.22766 2.65039C3.45552 2.39252 3.73713 2.18771 4.05266 2.05039C4.50982 1.88542 4.99166 1.7992 5.47766 1.79539C6.22766 1.79539 6.50516 1.75039 8.47766 1.75039C10.4502 1.75039 10.7277 1.75039 11.4777 1.79539C11.9538 1.80085 12.4255 1.88707 12.8727 2.05039C13.2135 2.17688 13.5194 2.38253 13.7652 2.65039C14.011 2.88077 14.203 3.16244 14.3277 3.47539C14.4944 3.93209 14.5807 4.41422 14.5827 4.90039C14.6202 5.65039 14.6277 5.92789 14.6277 7.90039C14.6277 9.87289 14.6202 10.1504 14.5827 10.9004ZM8.47766 4.05289C7.71702 4.05437 6.97388 4.28128 6.34215 4.70495C5.71042 5.12862 5.21844 5.73004 4.92839 6.4332C4.63833 7.13637 4.5632 7.90974 4.71251 8.65559C4.86181 9.40143 5.22884 10.0863 5.76722 10.6236C6.3056 11.161 6.99117 11.5267 7.7373 11.6745C8.48344 11.8224 9.25666 11.7457 9.95926 11.4543C10.6619 11.1629 11.2624 10.6697 11.6848 10.0372C12.1072 9.40461 12.3327 8.66103 12.3327 7.90039C12.3337 7.39422 12.2346 6.89285 12.0411 6.42511C11.8477 5.95737 11.5636 5.5325 11.2054 5.17493C10.8471 4.81736 10.4216 4.53415 9.95351 4.34159C9.48539 4.14903 8.98383 4.05091 8.47766 4.05289ZM8.47766 10.3979C7.9837 10.3979 7.50084 10.2514 7.09012 9.97699C6.67941 9.70256 6.3593 9.3125 6.17027 8.85614C5.98124 8.39978 5.93178 7.89762 6.02815 7.41315C6.12452 6.92868 6.36238 6.48367 6.71166 6.13439C7.06094 5.78511 7.50595 5.54725 7.99042 5.45088C8.47489 5.35451 8.97705 5.40397 9.43341 5.593C9.88977 5.78203 10.2798 6.10214 10.5543 6.51285C10.8287 6.92357 10.9752 7.40643 10.9752 7.90039C10.9752 8.22837 10.9106 8.55313 10.7851 8.85614C10.6596 9.15915 10.4756 9.43448 10.2437 9.66639C10.0118 9.8983 9.73642 10.0823 9.43341 10.2078C9.1304 10.3333 8.80564 10.3979 8.47766 10.3979Z" fill="white"/>
</svg>
