<svg width="34" height="34" viewBox="0 0 34 34" fill="none" xmlns="http://www.w3.org/2000/svg">
<path d="M11.3363 26.9167C12.9011 26.9167 14.1696 25.6481 14.1696 24.0833C14.1696 22.5185 12.9011 21.25 11.3363 21.25C9.77146 21.25 8.50293 22.5185 8.50293 24.0833C8.50293 25.6481 9.77146 26.9167 11.3363 26.9167Z" stroke="#333333" stroke-miterlimit="1.5" stroke-linecap="round" stroke-linejoin="round"/>
<path d="M25.5023 26.9167C27.0671 26.9167 28.3356 25.6481 28.3356 24.0833C28.3356 22.5185 27.0671 21.25 25.5023 21.25C23.9375 21.25 22.6689 22.5185 22.6689 24.0833C22.6689 25.6481 23.9375 26.9167 25.5023 26.9167Z" stroke="#333333" stroke-miterlimit="1.5" stroke-linecap="round" stroke-linejoin="round"/>
<path d="M14.2398 24.0833H21.2523V9.1C21.2523 8.76863 20.9836 8.5 20.6523 8.5H1.41895" stroke="#333333" stroke-linecap="round"/>
<path d="M8.0071 24.0841H4.85293C4.52156 24.0841 4.25293 23.8155 4.25293 23.4841V16.2925" stroke="#333333" stroke-linecap="round"/>
<path d="M2.83496 12.75L8.50163 12.75" stroke="#333333" stroke-linecap="round" stroke-linejoin="round"/>
<path d="M21.2529 12.75H29.363C29.6001 12.75 29.815 12.8896 29.9113 13.1063L32.5346 19.0086C32.5686 19.0854 32.5863 19.1684 32.5863 19.2523V23.4833C32.5863 23.8147 32.3176 24.0833 31.9863 24.0833H29.0446" stroke="#333333" stroke-linecap="round"/>
<path d="M21.2529 24.0825H22.6696" stroke="#333333" stroke-linecap="round"/>
</svg>
