<svg width="34" height="34" viewBox="0 0 34 34" fill="none" xmlns="http://www.w3.org/2000/svg">
<path d="M4.25 9.91766L17 15.5843M29.75 9.91766L17 15.5843M17 31.1677V15.5843" stroke="#333333" stroke-linejoin="round"/>
<path d="M4.25 25.1101V10.3066C4.25 10.0695 4.38964 9.8546 4.60632 9.7583L16.7563 4.3583C16.9115 4.28935 17.0885 4.28935 17.2437 4.3583L29.3937 9.7583C29.6104 9.8546 29.75 10.0695 29.75 10.3066V25.1101C29.75 25.3472 29.6104 25.5621 29.3937 25.6584L17.2437 31.0584C17.0885 31.1273 16.9115 31.1273 16.7563 31.0584L4.60632 25.6584C4.38964 25.5621 4.25 25.3472 4.25 25.1101Z" stroke="#333333" stroke-linecap="round" stroke-linejoin="round"/>
<path d="M10.625 7.08234L23.0187 12.5906C23.2354 12.6869 23.375 12.9018 23.375 13.1389V18.4157" stroke="#333333" stroke-linecap="round" stroke-linejoin="round"/>
</svg>
