<svg width="18" height="18" viewBox="0 0 18 18" fill="none" xmlns="http://www.w3.org/2000/svg">
<path fill-rule="evenodd" clip-rule="evenodd" d="M14.7005 4.85025L13.4255 3.15C13.0002 2.58375 12.3335 2.25 11.6255 2.25H6.37549C5.66749 2.25 5.00074 2.58375 4.57549 3.15L3.30049 4.85025C3.10549 5.10975 3.00049 5.4255 3.00049 5.75025V13.5C3.00049 14.7428 4.00774 15.75 5.25049 15.75H12.7505C13.9932 15.75 15.0005 14.7428 15.0005 13.5V5.75025C15.0005 5.4255 14.8955 5.10975 14.7005 4.85025Z" stroke="black" stroke-linecap="round" stroke-linejoin="round"/>
<path d="M11.25 7.50003C11.25 8.74278 10.2428 9.75003 9 9.75003C7.75725 9.75003 6.75 8.74278 6.75 7.50003" stroke="black" stroke-linecap="round" stroke-linejoin="round"/>
<path d="M14.9108 5.24997H3.09082" stroke="black" stroke-linecap="round" stroke-linejoin="round"/>
</svg>
