<svg width="79" height="21" viewBox="0 0 79 21" fill="none" xmlns="http://www.w3.org/2000/svg">
<path d="M15.8153 21H0.305313V17.97L11.6753 3.06H0.905313V0.0599996H15.4853V3.09L4.11531 18H15.8153V21ZM19.4999 21V0.0599996H32.9099V3.06H22.8899V8.88H31.9799V11.88H22.8899V18H32.9099V21H19.4999ZM53.3031 4.98H53.1531L51.5031 8.37L46.9131 16.74L42.3231 8.37L40.6731 4.98H40.5231V21H37.2831V0.0599996H41.3031L46.9131 10.71H47.0931L52.7031 0.0599996H56.5431V21H53.3031V4.98ZM74.7967 21L72.9067 15.33H65.0767L63.2467 21H59.7967L66.9367 0.0599996H71.1967L78.3367 21H74.7967ZM69.0667 3.18H68.9167L65.8867 12.42H72.0667L69.0667 3.18Z" fill="black"/>
</svg>
