<svg width="50" height="50" viewBox="0 0 50 50" fill="none" xmlns="http://www.w3.org/2000/svg">
<path d="M43.1999 11.5356V15.7023H39.0332H43.1999" stroke="black" stroke-linecap="round" stroke-linejoin="round"/>
<path d="M15.8066 22.352C15.8066 20.6625 17.1775 19.2916 18.8671 19.2916C20.5566 19.2916 21.9275 20.6625 21.9275 22.352C21.9275 26.177 15.8087 26.177 15.8087 30.7062H21.9275" stroke="black" stroke-linecap="round" stroke-linejoin="round"/>
<path d="M33.1125 25.0628L27.8792 25.0066C27.5833 25.0024 27.3438 24.7628 27.3438 24.4649V19.2941" stroke="black" stroke-linecap="round" stroke-linejoin="round"/>
<path d="M33.1042 19.4169V30.7085" stroke="black" stroke-linecap="round" stroke-linejoin="round"/>
<path d="M42.2921 15.7042C38.9525 9.65836 32.4629 5.55627 25.0004 5.55627C14.2608 5.55627 5.55664 14.2625 5.55664 25C5.55664 35.7375 14.2608 44.4438 25.0004 44.4438C35.74 44.4438 44.4441 35.7375 44.4441 25" stroke="black" stroke-linecap="round" stroke-linejoin="round"/>
</svg>
