<svg width="51" height="50" viewBox="0 0 51 50" fill="none" xmlns="http://www.w3.org/2000/svg">
<path d="M16.8327 39.5833C19.1339 39.5833 20.9993 37.7179 20.9993 35.4167C20.9993 33.1155 19.1339 31.25 16.8327 31.25C14.5315 31.25 12.666 33.1155 12.666 35.4167C12.666 37.7179 14.5315 39.5833 16.8327 39.5833Z" stroke="black" stroke-miterlimit="1.5" stroke-linecap="round" stroke-linejoin="round"/>
<path d="M37.6667 39.5833C39.9679 39.5833 41.8333 37.7179 41.8333 35.4167C41.8333 33.1155 39.9679 31.25 37.6667 31.25C35.3655 31.25 33.5 33.1155 33.5 35.4167C33.5 37.7179 35.3655 39.5833 37.6667 39.5833Z" stroke="black" stroke-miterlimit="1.5" stroke-linecap="round" stroke-linejoin="round"/>
<path d="M21.1042 35.4167H31.4167V13.1C31.4167 12.7686 31.148 12.5 30.8167 12.5H2.25" stroke="black" stroke-linecap="round"/>
<path d="M11.9368 35.4179H7.01602C6.68464 35.4179 6.41602 35.1493 6.41602 34.8179V23.9596" stroke="black" stroke-linecap="round"/>
<path d="M4.33398 18.75L12.6673 18.75" stroke="black" stroke-linecap="round" stroke-linejoin="round"/>
<path d="M31.416 18.75H43.5261C43.7632 18.75 43.9781 18.8896 44.0744 19.1063L48.031 28.0086C48.0651 28.0854 48.0827 28.1684 48.0827 28.2523V34.8167C48.0827 35.148 47.8141 35.4167 47.4827 35.4167H42.8743" stroke="black" stroke-linecap="round"/>
<path d="M31.416 35.4154H33.4993" stroke="black" stroke-linecap="round"/>
</svg>
