<svg width="54" height="52" viewBox="0 0 54 52" fill="none" xmlns="http://www.w3.org/2000/svg">
<path d="M0.57666 28.3836C8.34414 27.9092 24.5678 27.2449 27.3228 28.3836C30.7665 29.8069 35.7025 31.6681 36.506 32.106M12.1705 32.5439C14.0438 31.7643 18.7852 31.3316 24.0792 34.9526M32.7179 34.9526C30.6976 36.8795 27.4376 36.7773 26.0601 36.4854C25.3943 35.908 24.7325 35.3994 24.0792 34.9526M32.7179 34.9526C34.8717 32.8983 38.8624 30.2867 41.5568 30.7172M32.7179 34.9526C29.6875 32.8505 24.0792 34.9526 24.0792 34.9526M22.846 41.7406C28.0804 41.5654 31.6083 40.3538 32.7179 39.7699L42.8195 31.2301C42.4479 30.9563 42.0216 30.7914 41.5568 30.7172M41.5568 30.7172C43.2404 29.5994 47.4341 27.6991 50.74 29.0405L46.8326 32.106M36.506 40.2078L46.8326 32.106M46.8326 32.106C48.0586 31.5586 50.9237 31.0112 52.5767 33.2008L43.8526 38.4959M0.57666 39.7699C0.57666 39.3319 4.47953 36.9233 13.548 41.7406C20.8027 45.5944 24.9122 45.609 26.0601 45.1346L30.0778 44.1669M30.0778 44.1669L37.4243 42.3975L43.8526 38.4959M30.0778 44.1669C31.3244 44.1669 34.9724 45.2594 38.687 44.1669C42.6362 43.0055 48.3294 40.9377 50.74 40.2078C50.1661 39.3585 47.9851 37.827 43.8526 38.4959" stroke="black" stroke-width="0.8"/>
<path d="M39.8347 9.99019L34.7839 4.62549H30.9958M39.8347 9.99019H34.7839M39.8347 9.99019L26.519 22.4713M22.8457 4.62549H18.4837L13.3832 9.92255M22.8457 4.62549L18.4837 9.99019M22.8457 4.62549H30.9958M18.4837 9.99019H13.3181L13.3832 9.92255M18.4837 9.99019L26.519 22.4713M18.4837 9.99019H34.7839M26.519 22.4713L34.7839 9.99019M26.519 22.4713L13.3832 9.92255M34.7839 9.99019L30.9958 4.62549" stroke="black" stroke-width="0.8"/>
</svg>
