<svg width="53" height="52" viewBox="0 0 53 52" fill="none" xmlns="http://www.w3.org/2000/svg">
<path d="M13.1582 13.4932L26.9463 5M13.1582 13.4932L19.382 16.8721L26.9463 12.032M13.1582 13.4932V33.0365M26.9463 45L13.1582 36.3242L19.382 33.0365M26.9463 45L41.1174 36.3242M26.9463 45V37.968M41.1174 36.3242V13.4932M41.1174 36.3242L34.9893 33.0365M41.1174 13.4932L26.9463 5M41.1174 13.4932L34.9893 16.8721V33.0365M26.9463 5V12.032M19.382 33.0365L26.9463 37.968M19.382 33.0365L19.3701 19.5M26.9463 12.032L31.9517 15M34.9893 33.0365L26.9463 37.968" stroke="black"/>
</svg>
