<svg width="130" height="42" viewBox="0 0 130 42" fill="none" xmlns="http://www.w3.org/2000/svg">
<g style="mix-blend-mode:luminosity" opacity="0.5">
<path fill-rule="evenodd" clip-rule="evenodd" d="M23.7816 6.55124C23.4587 6.48292 23.1256 6.48292 22.8026 6.55124C22.4293 6.63021 22.0956 6.82245 21.8304 6.97527L21.7581 7.01682L12.768 12.1542C12.7431 12.1684 12.7174 12.183 12.6912 12.1979C12.4104 12.3569 12.0574 12.557 11.7862 12.8596C11.5519 13.1213 11.3745 13.4314 11.266 13.7693C11.1404 14.16 11.1418 14.5746 11.1431 14.9044C11.1431 14.9352 11.1433 14.9653 11.1433 14.9945V25.1381C11.1433 25.1674 11.1431 25.1975 11.1431 25.2282C11.1418 25.558 11.1404 25.9726 11.266 26.3634C11.3745 26.7012 11.5519 27.0113 11.7862 27.273C12.0574 27.5756 12.4105 27.7757 12.6912 27.9348C12.7174 27.9497 12.7431 27.9641 12.768 27.9784L21.7581 33.1159L21.8304 33.1574C22.0956 33.3102 22.4293 33.5024 22.8026 33.5814C23.1256 33.6496 23.4587 33.6496 23.7816 33.5814C24.1548 33.5024 24.4885 33.3102 24.7538 33.1574L24.8261 33.1159L33.8162 27.9784C33.8272 27.9721 33.8383 27.9657 33.8496 27.9593C33.8639 27.9512 33.8782 27.9431 33.8929 27.9348C34.1737 27.7757 34.5268 27.5756 34.798 27.273C35.0324 27.0113 35.2097 26.7012 35.3183 26.3634C35.4438 25.9726 35.4423 25.558 35.4411 25.2282C35.441 25.1975 35.4409 25.1674 35.4409 25.1381V14.9945C35.4409 14.9653 35.441 14.9353 35.4411 14.9044C35.4423 14.5746 35.4438 14.16 35.3183 13.7693C35.2097 13.4314 35.0324 13.1213 34.798 12.8596C34.5268 12.557 34.1737 12.3569 33.8929 12.1979L33.8918 12.1973C33.8661 12.1826 33.8407 12.1683 33.8162 12.1542L24.8261 7.01682L24.7538 6.97527C24.4885 6.82245 24.1548 6.63021 23.7816 6.55124ZM22.938 9.20161C23.1222 9.09641 23.2163 9.04325 23.2863 9.00846L23.2921 9.0056L23.2979 9.00846C23.368 9.04325 23.4619 9.09641 23.6461 9.20161L31.7244 13.818L23.2921 18.6367L14.8598 13.818L22.938 9.20161ZM13.5731 15.9418L22.0772 20.8016V30.4391L13.9479 25.7936C13.7537 25.6826 13.6544 25.6253 13.5848 25.5796L13.5789 25.5758L13.5785 25.5686C13.5735 25.4838 13.5731 25.3668 13.5731 25.1381V15.9418Z" fill="black"/>
<path d="M46.498 24.2427H50.3652V26.5869H43.5457V14.1201H46.498V24.2427Z" fill="black"/>
<path d="M53.0855 15.6475C52.5675 15.6475 52.1417 15.4937 51.8078 15.1858C51.4856 14.8661 51.3244 14.4754 51.3244 14.0136C51.3244 13.5401 51.4856 13.1494 51.8078 12.8417C52.1417 12.5219 52.5675 12.3621 53.0855 12.3621C53.5919 12.3621 54.0062 12.5219 54.3285 12.8417C54.6624 13.1494 54.8292 13.5401 54.8292 14.0136C54.8292 14.4754 54.6624 14.8661 54.3285 15.1858C54.0062 15.4937 53.5919 15.6475 53.0855 15.6475ZM54.553 16.6775V26.587H51.6007V16.6775H54.553Z" fill="black"/>
<path d="M60.1799 16.5354C60.859 16.5354 61.4518 16.6775 61.9583 16.9617C62.4762 17.2457 62.8733 17.6187 63.1495 18.0803V16.6775H66.1017V26.5692C66.1017 27.4808 65.9233 28.3037 65.5666 29.0377C65.2213 29.7836 64.686 30.3755 63.961 30.8136C63.2473 31.2516 62.3553 31.4707 61.2849 31.4707C59.8576 31.4707 58.7009 31.1214 57.8147 30.4229C56.9285 29.7361 56.422 28.8009 56.2954 27.617H59.2131C59.3052 27.9959 59.5239 28.2918 59.8692 28.5049C60.2145 28.7299 60.6403 28.8424 61.1468 28.8424C61.7568 28.8424 62.2403 28.6589 62.597 28.2918C62.9654 27.9366 63.1495 27.3623 63.1495 26.5692V25.1662C62.8618 25.628 62.4647 26.0069 61.9583 26.3028C61.4518 26.5869 60.859 26.729 60.1799 26.729C59.3857 26.729 58.6664 26.5219 58.0219 26.1074C57.3773 25.6812 56.8651 25.0834 56.4853 24.3138C56.117 23.5324 55.9328 22.6326 55.9328 21.6144C55.9328 20.5963 56.117 19.7024 56.4853 18.9328C56.8651 18.1633 57.3773 17.5714 58.0219 17.1569C58.6664 16.7426 59.3857 16.5354 60.1799 16.5354ZM63.1495 21.6322C63.1495 20.8745 62.9424 20.2767 62.5279 19.8386C62.1251 19.4005 61.6302 19.1814 61.0431 19.1814C60.4562 19.1814 59.9555 19.4005 59.5412 19.8386C59.1383 20.2648 58.9369 20.8567 58.9369 21.6144C58.9369 22.3722 59.1383 22.976 59.5412 23.4259C59.9555 23.8639 60.4562 24.083 61.0431 24.083C61.6302 24.083 62.1251 23.8639 62.5279 23.4259C62.9424 22.9878 63.1495 22.3898 63.1495 21.6322Z" fill="black"/>
<path d="M73.9868 16.5706C75.0917 16.5706 75.978 16.9494 76.6456 17.7072C77.3131 18.4531 77.6469 19.4831 77.6469 20.7973V26.5867H74.7118V21.2056C74.7118 20.5426 74.545 20.0277 74.2112 19.6607C73.8773 19.2937 73.4285 19.1101 72.8645 19.1101C72.3006 19.1101 71.8517 19.2937 71.5179 19.6607C71.1842 20.0277 71.0172 20.5426 71.0172 21.2056V26.5867H68.0649V13.4451H71.0172V18.009C71.3165 17.5711 71.7251 17.2218 72.243 16.9614C72.761 16.7009 73.3423 16.5706 73.9868 16.5706Z" fill="black"/>
<path d="M84.895 24.0119V26.5869H83.3931C82.3227 26.5869 81.4882 26.3205 80.8896 25.7878C80.2912 25.2432 79.9919 24.3611 79.9919 23.1417V19.1992H78.8179V16.6775H79.9919V14.2622H82.9442V16.6775H84.8778V19.1992H82.9442V23.1772C82.9442 23.4732 83.0132 23.6863 83.1514 23.8166C83.2894 23.9468 83.5197 24.0119 83.8419 24.0119H84.895Z" fill="black"/>
<path d="M89.3193 18.0801C89.5955 17.6184 89.9926 17.2455 90.5105 16.9614C91.0284 16.6772 91.6212 16.5352 92.2887 16.5352C93.0828 16.5352 93.8024 16.7423 94.4468 17.1567C95.0913 17.5711 95.5983 18.163 95.966 18.9326C96.3458 19.7022 96.5361 20.5959 96.5361 21.6142C96.5361 22.6324 96.3458 23.5321 95.966 24.3135C95.5983 25.0831 95.0913 25.6809 94.4468 26.1072C93.8024 26.5216 93.0828 26.7287 92.2887 26.7287C91.6097 26.7287 91.0169 26.5926 90.5105 26.3203C90.0041 26.0361 89.6069 25.6632 89.3193 25.2015V26.5867H86.367V13.4451H89.3193V18.0801ZM93.5322 21.6142C93.5322 20.8565 93.3242 20.2644 92.91 19.8383C92.5074 19.4003 92.0067 19.1812 91.4083 19.1812C90.8212 19.1812 90.3205 19.4003 89.9063 19.8383C89.5034 20.2764 89.302 20.8741 89.302 21.6319C89.302 22.3896 89.5034 22.9875 89.9063 23.4256C90.3205 23.8636 90.8212 24.0826 91.4083 24.0826C91.9952 24.0826 92.4959 23.8636 92.91 23.4256C93.3242 22.9757 93.5322 22.3718 93.5322 21.6142Z" fill="black"/>
<path d="M102.297 26.729C101.354 26.729 100.502 26.5219 99.7425 26.1074C98.9941 25.6931 98.4016 25.1011 97.9643 24.3315C97.5381 23.562 97.3254 22.6622 97.3254 21.6322C97.3254 20.614 97.5436 19.7202 97.981 18.9507C98.4183 18.1693 99.0173 17.5714 99.7768 17.1569C100.536 16.7426 101.388 16.5354 102.332 16.5354C103.276 16.5354 104.127 16.7426 104.887 17.1569C105.646 17.5714 106.245 18.1693 106.683 18.9507C107.12 19.7202 107.338 20.614 107.338 21.6322C107.338 22.6504 107.114 23.5501 106.665 24.3315C106.228 25.1011 105.624 25.6931 104.852 26.1074C104.093 26.5219 103.241 26.729 102.297 26.729ZM102.297 24.1006C102.862 24.1006 103.339 23.8876 103.731 23.4614C104.133 23.0352 104.334 22.4255 104.334 21.6322C104.334 20.8389 104.139 20.2292 103.747 19.8031C103.368 19.3769 102.896 19.1638 102.332 19.1638C101.757 19.1638 101.278 19.3769 100.899 19.8031C100.519 20.2174 100.329 20.8271 100.329 21.6322C100.329 22.4255 100.513 23.0352 100.882 23.4614C101.262 23.8876 101.733 24.1006 102.297 24.1006Z" fill="black"/>
<path d="M114.429 26.587L112.582 23.8343L111.029 26.587H107.834L111.011 21.5257L107.748 16.6775H111.062L112.91 19.4124L114.464 16.6775H117.659L114.429 21.6678L117.744 26.587H114.429Z" fill="black"/>
</g>
</svg>
