<svg width="120" height="38" viewBox="0 0 120 38" fill="none" xmlns="http://www.w3.org/2000/svg">
<g style="mix-blend-mode:luminosity" opacity="0.5">
<path d="M15.5853 25.1488C21.4317 25.1488 26.1711 20.4145 26.1711 14.5744C26.1711 13.9125 26.1102 13.2648 25.9937 12.6366C25.3649 12.5203 24.7165 12.4595 24.0539 12.4595C18.2076 12.4595 13.4683 17.1938 13.4683 23.0339C13.4683 23.6958 13.5291 24.3434 13.6455 24.9716C14.2744 25.0879 14.9228 25.1488 15.5853 25.1488Z" fill="#BFBFBF"/>
<path d="M15.5853 25.1488C21.4317 25.1488 26.1711 20.4145 26.1711 14.5744C26.1711 13.9125 26.1102 13.2648 25.9937 12.6366C25.3649 12.5203 24.7165 12.4595 24.0539 12.4595C18.2076 12.4595 13.4683 17.1938 13.4683 23.0339C13.4683 23.6958 13.5291 24.3434 13.6455 24.9716C14.2744 25.0879 14.9228 25.1488 15.5853 25.1488Z" stroke="#BFBFBF"/>
<path fill-rule="evenodd" clip-rule="evenodd" d="M15.5853 25.1488C21.4316 25.1488 26.171 20.4145 26.171 14.5744C26.171 13.9126 26.1101 13.2649 25.9936 12.6367C30.9136 13.5468 34.6396 17.8557 34.6396 23.034C34.6396 28.874 29.9002 33.6084 24.0538 33.6084C18.8701 33.6084 14.5566 29.8863 13.6455 24.9717C14.2743 25.088 14.9227 25.1488 15.5853 25.1488Z" fill="#7D7D7D"/>
<path fill-rule="evenodd" clip-rule="evenodd" d="M13.6459 24.9716C8.726 24.0614 5 19.7526 5 14.5744C5 8.73432 9.73936 4 15.5858 4C20.7694 4 25.083 7.72201 25.994 12.6367C25.3652 12.5204 24.7169 12.4595 24.0542 12.4595C18.2079 12.4595 13.4686 17.1938 13.4686 23.0339C13.4686 23.6958 13.5295 24.3435 13.6459 24.9716Z" fill="black"/>
<path d="M56.4161 21.1274C55.9358 23.5382 53.7017 25.1945 50.5043 25.1945C48.6894 25.1945 47.0453 24.6131 45.8595 23.5026C44.6795 22.3975 43.9109 20.7292 43.9109 18.4674C43.9109 16.2084 44.6927 14.5396 45.8811 13.4331C47.0759 12.3208 48.7211 11.7402 50.5043 11.7402C53.6329 11.7402 55.8778 13.3715 56.4545 15.8073H54.2844C53.8479 14.2683 52.2871 13.3444 50.5043 13.3444C49.2427 13.3444 48.0931 13.7876 47.2614 14.6793C46.4315 15.569 45.9625 16.8568 45.9625 18.4674C45.9625 20.078 46.4316 21.3615 47.2625 22.2465C48.095 23.1332 49.2446 23.5701 50.5043 23.5701C52.3261 23.5701 53.8845 22.6463 54.3544 21.1274H56.4161Z" fill="black" stroke="black"/>
<path d="M66.563 25.033H64.7742V24.1199L63.8041 23.9497C63.56 24.6237 62.6838 25.1945 61.4045 25.1945C59.6655 25.1945 58.57 24.0726 58.57 22.6462C58.57 21.7815 58.8884 21.1231 59.419 20.6732C59.9589 20.2154 60.7638 19.9364 61.7885 19.9364H63.5062C63.8692 19.9364 64.2004 19.8174 64.4398 19.5688C64.6757 19.3239 64.7742 19.0035 64.7742 18.6894C64.7742 18.1232 64.5459 17.6191 64.112 17.2667C63.6883 16.9227 63.1112 16.7561 62.4554 16.7561C61.7317 16.7561 61.1377 16.9837 60.7154 17.3819C60.4209 17.6597 60.2277 18.0039 60.1298 18.3711H58.6221C58.7703 17.6999 59.123 17.1059 59.6575 16.6499C60.3305 16.0759 61.3209 15.697 62.617 15.697C63.8064 15.697 64.7975 16.043 65.4818 16.6152C66.1584 17.181 66.563 17.9892 66.563 18.9923V25.033ZM64.7742 21.2129V20.7129H64.2742H62.2129C61.6866 20.7129 61.1981 20.8764 60.8344 21.2005C60.4658 21.529 60.2579 21.995 60.2579 22.525C60.2579 23.5502 61.1384 24.1555 62.1118 24.1555C62.93 24.1555 63.6105 23.8506 64.0816 23.322C64.5465 22.8004 64.7742 22.0993 64.7742 21.3542V21.2129Z" fill="black" stroke="black"/>
<path d="M69.4507 15.8585H71.2597V16.4688V17.9375L72.1559 16.7739C72.6509 16.131 73.5022 15.697 74.6901 15.697C75.9856 15.697 77.0113 16.1655 77.7184 16.9643C78.4311 17.7694 78.8584 18.9543 78.8584 20.4458C78.8584 21.926 78.3974 23.1082 77.6376 23.9161C76.8803 24.7214 75.7895 25.1945 74.4476 25.1945C73.3898 25.1945 72.5708 24.8413 72.1511 24.3134L71.2597 23.1922V24.6245V29.1513H69.4507V15.8585ZM71.0981 20.4458C71.0981 21.389 71.3742 22.2218 71.908 22.8259C72.447 23.4359 73.214 23.772 74.1041 23.772C74.9773 23.772 75.7379 23.4335 76.2748 22.8259C76.8072 22.2233 77.0897 21.3915 77.0897 20.4458C77.0897 19.4913 76.808 18.6545 76.2756 18.0489C75.7386 17.438 74.9775 17.0993 74.1041 17.0993C73.2138 17.0993 72.4464 17.4355 71.9071 18.0489C71.3734 18.6561 71.0981 19.4938 71.0981 20.4458Z" fill="black" stroke="black"/>
<path d="M87.7656 22.4847C87.7656 23.3057 87.4374 23.9642 86.8648 24.4277C86.2824 24.899 85.4124 25.1945 84.3047 25.1945C83.153 25.1945 82.2282 24.8723 81.5884 24.3389C81.0736 23.9098 80.7192 23.3249 80.5806 22.6011H82.0424C82.1658 22.9872 82.3914 23.3188 82.7078 23.5701C83.1348 23.9093 83.6912 24.0748 84.3047 24.0748C84.8148 24.0748 85.2878 23.9511 85.649 23.7059C86.0161 23.4566 86.2799 23.0673 86.2799 22.5856C86.2799 22.201 86.1472 21.8771 85.9003 21.6272C85.6699 21.3939 85.3694 21.2549 85.0798 21.1601C84.787 21.0642 84.4574 20.9988 84.135 20.9412C84.037 20.9237 83.94 20.907 83.8433 20.8903C83.61 20.8501 83.379 20.8103 83.1435 20.7612C82.476 20.6222 81.8981 20.4311 81.4857 20.0751C81.1 19.7422 80.8033 19.2152 80.8033 18.2655C80.8033 16.8252 82.0477 15.697 83.9409 15.697C85.0773 15.697 85.9862 16.0018 86.6121 16.4955C87.0985 16.8792 87.4321 17.3902 87.5733 18.0078H86.0865C85.7534 17.1121 84.8376 16.6754 84.0217 16.6754C83.5642 16.6754 83.1173 16.7737 82.7701 17.0198C82.4024 17.2804 82.1879 17.68 82.1879 18.1645C82.1879 18.5526 82.3251 18.8782 82.585 19.1227C82.8248 19.3481 83.1348 19.4718 83.4276 19.5518C83.7246 19.633 84.0595 19.6832 84.3859 19.7271C84.4602 19.7371 84.5342 19.7469 84.608 19.7565C84.8693 19.7908 85.1286 19.8249 85.3903 19.8708C86.0658 19.9894 86.6487 20.1718 87.0645 20.5363C87.4561 20.8795 87.7656 21.4444 87.7656 22.4847Z" fill="black" stroke="black"/>
<path d="M90.1604 21.6975V15.8586H91.9696V21.0717C91.9696 22.5394 92.9636 23.6914 94.4294 23.6914C95.9771 23.6914 97.0318 22.4585 97.0318 20.9304V15.8586H98.8609V25.0331H97.0318V24.12V22.2732L96.1 23.8678C95.6401 24.655 94.6919 25.1946 93.4395 25.1946C92.4262 25.1946 91.6176 24.8262 91.0597 24.2262C90.4985 23.6226 90.1604 22.751 90.1604 21.6975Z" fill="black" stroke="black"/>
<path d="M103.69 11.4375V25.0331H101.881V11.4375H103.69Z" fill="black" stroke="black"/>
<path d="M115.119 22.5809C114.557 24.1664 112.986 25.1945 110.918 25.1945C107.796 25.1945 106.183 22.7755 106.183 20.4255C106.183 19.2287 106.549 18.042 107.286 17.1637C108.013 16.298 109.128 15.697 110.715 15.697C112.379 15.697 113.493 16.3023 114.199 17.1333C114.917 17.9779 115.248 19.0976 115.248 20.1631C115.248 20.3122 115.244 20.4483 115.239 20.5715H108.391H107.815L107.896 21.1414C108.009 21.9456 108.328 22.6399 108.858 23.1352C109.392 23.6341 110.101 23.8931 110.918 23.8931C111.544 23.8931 112.113 23.7709 112.572 23.4882C112.93 23.2674 113.201 22.9604 113.372 22.5809H115.119ZM112.938 19.795H113.475L113.437 19.2594C113.389 18.5889 113.129 17.9591 112.654 17.4943C112.175 17.0256 111.51 16.7561 110.715 16.7561C109.998 16.7561 109.357 16.9337 108.858 17.369C108.362 17.8018 108.072 18.4329 107.939 19.2106L107.839 19.795H108.432H112.938Z" fill="black" stroke="black"/>
</g>
</svg>
